:SAMPLES-PER-SECOND 30
:FULLY-SPECIFIED
:DEGREES
122
root  34.96318126 36.53125913 -14.72986477 9.55172348 0.1339300424 3.293977499
lowerback  -8.113100052 1.635499954 1.194099784
upperback  -4.084740162 1.706400037 -3.861259937
thorax  0.4741730094 0.6182019711 -4.52891016
lowerneck  -15.0632 1.340980053 3.028879881
upperneck  15.87969971 -0.1265929937 4.942800045
head  7.386539936 0.456795007 1.091330051
lclavicle  0 -4.497500157e-015 -2.743230041e-014
lhumerus  -44.69520187 25.70199966 68.85340118
lradius  -0.02712364867 -6.507048965e-006 28.30180168
lwrist  4.824992743e-007 -3.790274832e-007 -28.73940086
lhand  -0 -36.84529877 -10.55770016
lfingers  90 7.125020027 -90
lthumb  94.76564136 -25.3976495 100.9998888
rclavicle  0 -4.497500157e-015 -2.743230041e-014
rhumerus  37.00569916 19.35709953 -58.21229935
rradius  -5.16745672e-007 2.214343908e-008 81.90139771
rwrist  -3.062178075e-005 0.01725428365 -178.727005
rhand  -1.771433873e-031 4.666210175 -5.528580189
rfingers  -90 -7.125020027 -90
rthumb  -83.97920484 -10.27595217 -59.4066407
rfemur  -12.46065903 14.86766148 13.42445374
rtibia  -0.9998505116 0.3300702274 20.83250618
rfoot  -0.41777578 -19.53227615 -39.21585083
rtoes  4.088435913 19.59443019 -102.0318813
lfemur  -9.290553093 -17.72559166 -19.34326363
ltibia  2.586405277 0.6942266822 14.70340824
lfoot  0.6275757551 -26.73039818 34.61613464
ltoes  -8.502608511 -18.17000487 -115.6134511
123
root  34.96395622 36.53159254 -14.72789284 9.574949265 0.229238525 3.30878377
lowerback  -8.119099617 1.711410165 1.294190288
upperback  -4.096290112 1.80140996 -3.873869896
thorax  0.4772880077 0.6646680236 -4.590650082
lowerneck  -15.1335001 1.409639955 3.190490007
upperneck  15.98400021 -0.02887415141 4.706880093
head  7.43185997 0.4973999858 0.9999379516
lclavicle  0 -4.497500157e-015 -2.743230041e-014
lhumerus  -44.59540176 25.42090034 69.0483017
lradius  -0.02787634358 -6.507048965e-006 28.21959877
lwrist  4.824992743e-007 -3.790274832e-007 -28.60750008
lhand  -0 -36.83779907 -10.6086998
lfingers  90 7.125020027 -90
lthumb  94.77290516 -25.4479213 100.9965
rclavicle  0 -4.497500157e-015 -2.743230041e-014
rhumerus  38.06520081 19.10440063 -57.70510101
rradius  -5.16745672e-007 2.214343908e-008 81.33499908
rwrist  -3.062178075e-005 0.01719459333 -178.8029938
rhand  -1.771636887e-031 4.745969772 -5.534170151
rfingers  -90 -7.125020027 -90
rthumb  -83.96118872 -10.27509742 -59.32896236
rfemur  -12.47284126 14.80592632 13.42352772
rtibia  -1.014026403 0.3321042955 20.84405327
rfoot  -0.4273717105 -19.50656128 -39.24019623
rtoes  4.083322932 19.59545618 -102.0166354
lfemur  -9.300703049 -17.67745781 -19.35676003
ltibia  2.625155687 0.7489073277 14.67941952
lfoot  0.6589806676 -26.8398571 34.55748367
ltoes  -8.512215241 -18.16562591 -115.6442615
124
root  34.96495345 36.53150543 -14.72577373 9.59372139 0.3193920255 3.340658188
lowerback  -8.10505867 1.842120051 1.344849586
upperback  -4.075099945 1.973809958 -3.974420071
thorax  0.5118899941 0.7502660155 -4.709569931
lowerneck  -15.24250031 1.425809979 3.516700029
upperneck  15.93519974 -0.05917656049 4.576069832
head  7.436910152 0.4918889999 0.9012399316
lclavicle  0 -4.497500157e-015 -2.743230041e-014
lhumerus  -44.34189987 25.09799957 69.16629791
lradius  -0.02866368555 -6.507048965e-006 28.12740135
lwrist  4.824992743e-007 -3.790274832e-007 -28.64780045
lhand  -4.41623136e-031 -36.91009903 -10.67959976
lfingers  90 7.125020027 -90
lthumb  94.82177915 -25.51501397 101.0802528
rclavicle  0 -4.497500157e-015 -2.743230041e-014
rhumerus  38.93439484 18.58419991 -57.57130051
rradius  -5.16745672e-007 2.214343908e-008 80.69960022
rwrist  -3.062178075e-005 0.01713490486 -178.5440063
rhand  -1.771502993e-031 4.693520069 -5.419750214
rfingers  -90 -7.125020027 -90
rthumb  -83.91567908 -10.37096669 -59.36972204
rfemur  -12.5015192 14.78856754 13.40898514
rtibia  -1.038721204 0.3498792946 20.89969635
rfoot  -0.4623796344 -19.45536423 -39.30463791
rtoes  4.07987854 19.59614658 -102.0063654
lfemur  -9.266753197 -17.66078758 -19.40418053
ltibia  2.698642969 0.8065515161 14.5861311
lfoot  0.6940241456 -26.92411423 34.54436874
ltoes  -8.515622349 -18.16407139 -115.6551904
125
root  34.96508861 36.53199804 -14.72318304 9.619431496 0.4086930752 3.356450558
lowerback  -8.069688797 1.897390127 1.417329431
upperback  -4.043159962 2.046099901 -4.048840046
thorax  0.5371249914 0.7867190242 -4.822780132
lowerneck  -15.41119957 1.559900045 3.746690035
upperneck  15.93620014 0.06032515317 4.573339939
head  7.467730045 0.5653880239 0.8774470091
lclavicle  0 -4.497500157e-015 -2.743230041e-014
lhumerus  -44.20339966 25.02280045 69.16819763
lradius  -0.02947956696 -6.507048965e-006 28.07970047
lwrist  4.824992743e-007 -3.790274832e-007 -28.74370003
lhand  -4.413698376e-031 -36.86629868 -10.68089962
lfingers  90 7.125020027 -90
lthumb  94.80151546 -25.51787425 101.0334935
rclavicle  0 -4.497500157e-015 -2.743230041e-014
rhumerus  39.90869904 18.23500061 -57.44400024
rradius  -5.16745672e-007 2.214343908e-008 80.07990265
rwrist  -3.062178075e-005 0.01707522012 -178.246994
rhand  -1.771358111e-031 4.636089802 -5.488780022
rfingers  -90 -7.125020027 -90
rthumb  -83.96649753 -10.30875273 -59.43245224
rfemur  -12.52402878 14.73157215 13.40917587
rtibia  -1.05059576 0.3653152287 20.9313755
rfoot  -0.4748514593 -19.41941071 -39.313797
rtoes  4.079629967 19.59619638 -102.0056242
lfemur  -9.265239716 -17.67004013 -19.42484474
ltibia  2.740265846 0.8234829903 14.5433321
lfoot  0.7034080625 -26.93437958 34.49874496
ltoes  -8.559300695 -18.14407424 -115.7953768
